<svg xmlns="http://www.w3.org/2000/svg" viewBox="0 0 1040 104" width="1040" height="104" role="img" aria-label="Ten stages, each one a decision"><defs><linearGradient id="g" x1="0" y1="0" x2="1" y2="0"><stop offset="0" stop-color="#0b1c3d"/><stop offset="0.6" stop-color="#081228"/><stop offset="1" stop-color="#060f22"/></linearGradient></defs><rect width="1040" height="104" rx="9" fill="url(#g)"/><rect width="1040" height="104" rx="9" fill="none" stroke="#1e3a64"/><rect x="0" y="0" width="7" height="104" rx="3.5" fill="#38bdf8"/><text x="34" y="40" font-family="ui-monospace,SFMono-Regular,Menlo,monospace" font-size="16.1" letter-spacing="2" fill="#0ea5e9" font-weight="700">THE BUILD</text><text x="34" y="76" font-family="-apple-system,BlinkMacSystemFont,'Segoe UI',Helvetica,Arial,sans-serif" font-size="27.3" fill="#e0f2fe" font-weight="700">Ten stages, each one a decision</text><text x="830" y="42" font-family="ui-monospace,SFMono-Regular,Menlo,monospace" font-size="17.4" fill="#9fc4e6" text-anchor="end">10 stages, 4 can block</text><rect x="844.0" y="72.7" width="8.1" height="13.3" fill="#38bdf8" opacity="0.36"/><rect x="860.2" y="70.6" width="8.1" height="15.4" fill="#38bdf8" opacity="0.42"/><rect x="876.4" y="68.6" width="8.1" height="17.4" fill="#38bdf8" opacity="0.48"/><rect x="892.6" y="66.5" width="8.1" height="19.5" fill="#38bdf8" opacity="0.54"/><rect x="908.8" y="64.4" width="8.1" height="21.6" fill="#38bdf8" opacity="0.60"/><rect x="925.0" y="62.3" width="8.1" height="23.7" fill="#38bdf8" opacity="0.66"/><rect x="941.2" y="60.2" width="8.1" height="25.8" fill="#38bdf8" opacity="0.72"/><rect x="957.4" y="58.2" width="8.1" height="27.8" fill="#38bdf8" opacity="0.78"/><rect x="973.6" y="56.1" width="8.1" height="29.9" fill="#38bdf8" opacity="0.84"/><rect x="989.8" y="54.0" width="8.1" height="32.0" fill="#38bdf8" opacity="0.90"/></svg>